<svg xmlns="http://www.w3.org/2000/svg" viewBox="0 0 712 860"><defs><style>.cls-1,.cls-12,.cls-8{fill:#450084;}.cls-2{fill:#ad9c65;}.cls-3{fill:#cbb677;}.cls-4{fill:#fff;}.cls-5{fill:#b599ce;}.cls-6{fill:#dacce6;}.cls-7{fill:none;stroke:#b599ce;stroke-miterlimit:10;stroke-width:5px;}.cls-8{font-size:45px;}.cls-12,.cls-8{font-family:Montserrat-SemiBoldItalic, Montserrat;font-weight:600;font-style:italic;}.cls-9{letter-spacing:0.08em;}.cls-10{letter-spacing:-0.01em;}.cls-11{letter-spacing:0em;}.cls-12{font-size:25px;}.cls-13{letter-spacing:-0.01em;}.cls-14{letter-spacing:-0.03em;}.cls-15{letter-spacing:0.01em;}.cls-16{letter-spacing:-0.01em;}.cls-17{letter-spacing:0em;}</style></defs><g id="Layer_4" data-name="Layer 4"><path id="path3" class="cls-1" d="M682.91,677.74l0,0c-6.07-6.85-9-19.55-12.07-33.08s-6.57-28.1-17.67-37.55l-.07-.06a46,46,0,0,0-6.73-4.89,43.84,43.84,0,0,0-6.89-3.32c15.42-45.76,9.37-91.33-6.21-132.5-19.11-50.54-52.47-94.57-78-124.69-28.54-36-56.44-70.15-55.88-120.61.84-77,8.46-219.82-127.06-220q-8.27,0-17.25.7C203.66,13.89,243.83,173.89,241.58,227.46c-2.77,39.18-10.71,70.06-37.66,108.36-31.65,37.64-76.23,98.57-97.34,162-10,29.93-14.7,60.44-10.33,89.32-1.37,1.23-2.67,2.52-3.92,3.84-9.29,9.93-16.16,21.95-23.81,30-7.15,7.14-17.33,9.85-28.53,13.86S16.5,644.82,9,659.14H9a.25.25,0,0,1,0,.07C5.48,665.77,4.34,672.84,4.34,680a132.3,132.3,0,0,0,2,19.82c2.06,13.46,4.15,26.18,1.38,34.81-8.86,24.23-10,41-3.76,53.14S23,805.33,37.57,808.37c29.06,6.06,68.41,4.56,99.42,21l2.67-5-2.64,5c33.2,17.36,66.86,23.52,93.71,17.39,19.48-4.44,35.28-16,43.4-33.88,21-.1,44.05-9,81-11,25-2,56.34,8.9,92.33,6.9A49.1,49.1,0,0,0,451.59,820l.06.1c14,27.9,39.87,40.66,67.5,38.48s57.07-18.49,80.85-46.78l-4.36-3.66,4.4,3.62c22.66-27.48,60.27-38.87,85.22-53.91,12.47-7.52,22.58-16.94,23.37-30.62S701.37,698.23,682.91,677.74Z"/><path id="path5" class="cls-2" d="M710.24,727.43c-.52,9.14-8.14,20.75-20.37,28.12-24.12,16.39-65.13,27.22-92.78,60.73-24,28.59-53.46,40.49-79.26,42.53s-50.49-9.43-63.62-35.76h0c-12.38-19.22-8.73-40.6-1.88-66.38,8.67-32.58,16.84-58.93,17.71-73.19h0c1.39-27.56,2.46-51.65,8.74-70.57,4.63-18.58,19-36.41,33.78-40a6.53,6.53,0,0,1,.6-.29c1.46,23.86,9.56,49.7,30.44,55,22.86,6,57.91-16.15,71.82-32.15,2.78-.11-2.64.06,0,0,12.21-.29,29.61,1.4,40.08,10.54h0c8,6.81,12.45,21.82,15.76,36.23s7.14,29.38,17.09,40.57h0C707.46,704,710.77,718.28,710.24,727.43Z"/><path id="path5-2" data-name="path5" class="cls-3" d="M698.24,726.57c-.48,8.44-6.59,14.71-17.88,21.51-22.56,13.61-62.55,25.45-88.08,56.38-22.18,26.39-49.22,40.88-73,42.76s-44.35-8-56.47-32.31l0,0,0-.06c-7.52-14.3-4.39-36.85,1.94-60.65s15.43-48.23,16.65-68.08V686c1.28-25.44,2.71-47.66,7-64.81s7.95-28,19.87-34.48c.56-.3-.55.27,0,0,1.35,22,16.38,47.26,35.66,52.11,21.11,5.57,52.11-16.94,64.95-31.71,2.57-.11,5.07-.23,7.5-.29,11.27-.27,20.71.38,30.37,8.82l0,0,0,0c7.42,6.29,10.95,18.17,14,31.47s5.5,27.79,14.68,38.12h0v0C693.06,704.9,698.73,718.12,698.24,726.57Z"/><path id="path7" class="cls-2" d="M278.5,793h0c-2.24,29.3-15.5,48.68-40.87,54.48s-59.86,2.59-94.2-15.37h0c-38-20.13-68.93-14.61-111.67-25.4-14.49-3-22.49-10.47-26.83-18.93s-7.41-22.4,1.81-47.57h0c4.57-14.08,2.33-29,.11-43.46S3.56,669.14,8.5,660l0-.09c6.32-12.18,14.58-18.39,26.09-22.51C46.5,631.5,57.5,630.5,69.52,621h0c10.71-13.18,15.06-20.69,23.81-30,7.38-7.89,19.33-16.18,30.48-16.26h.38a40.62,40.62,0,0,1,6.21.52c14.79,2.23,30.68,10.08,43.1,26.93l36.33,67h0c9.55,19.93,28.17,35.08,46.92,62C273.84,753.54,280.22,775.82,278.5,793Z"/><path id="path7-2" data-name="path7" class="cls-3" d="M269.49,789v.13c-2,26.74-17.12,41.3-40.28,46.59s-54.53,0-85.87-16.37h0c-34.68-18.37-75.93-16.54-102.4-22.07C27.67,794.46,19,790.3,15.07,782.58s-4.05-21.2,4.37-44.17l0-.1,0-.1c4.17-12.85,1.08-26.91-.94-40.11s-3-25.2,1.5-33.56l0-.08c5.77-11.12,14.23-15.1,24.73-18.86s23-6.73,32.79-16.59l.06,0,0-.05c9.09-9.59,15.92-21.62,23.91-30.15,6.74-7.2,13.49-12,23.66-12h.35a38.44,38.44,0,0,1,5.67.47c13.5,2,25.27,11.48,36.61,26.86l32.74,59.67v0l0,0c8.71,18.19,27.11,38.2,42.7,58.61S271.06,773.27,269.49,789Z"/><path id="path9" class="cls-2" d="M442.45,230.79c-2.88-5.86-8.77-11.44-18.79-15.7l0,0h0c-20.85-9.26-29.89-9.92-41.53-17.77-18.94-12.63-33.59-15.6-46.59-15.54a58.65,58.65,0,0,0-19.06,2.94c-15.85,5.66-26.65,16.29-33.24,22.76h0v0a84.12,84.12,0,0,1-7,5.51c-4.07,3.09-10.17,7.73-18.94,14.56-7.8,6.06-10.33,14-7.63,23.21s13,21.51,28.75,30.74h0l3.23,2.09c9.51,7.34,11.51,10.33,19.16,16.72a53.89,53.89,0,0,0,12.7,8.18,50,50,0,0,0,17.59,4c16.63,1,28.86-4.18,39.67-10.6S391,288.41,401.5,284.88h0c21.56-7,35.67-24.31,40.48-37.68C444.39,240.51,445.33,236.65,442.45,230.79Z"/><path id="path9-2" data-name="path9" class="cls-3" d="M432.77,232.69c-2.63-5.15-8-10.05-17.14-13.8h-.05c-19-8.14-27.26-8.72-37.87-15.62-17.27-11.1-31.54-15-43.4-14.94a51.23,51.23,0,0,0-16.73,2.84c-14.45,5-24,15.34-30.05,21h0s0,0,0,0a78.36,78.36,0,0,1-6.38,4.84c-3.71,2.71-9.27,6.79-17.27,12.79-7.11,5.33-9.42,12.27-7,20.4s10.29,17.51,24.63,25.62l0,0h0c8.9,5.23,15,12.28,22,17.89A49.23,49.23,0,0,0,315.12,301a47.07,47.07,0,0,0,16,3.55c15.16.88,26.32-3.67,36.17-9.31s18.23-12.52,27.82-15.63h0c19.66-6.14,33.68-18.51,38.07-30.26C435.46,243.42,435.39,237.84,432.77,232.69Z"/><path id="path11" d="M382.89,261.71c-15.64,8.15-33.91,18-53.35,18s-34.78-9-45.82-17.73c-5.52-4.37-10-8.72-13.38-11.88-5.86-4.63-5.16-11.12-2.75-10.93,4,.5,4.65,5.82,7.19,8.2,3.44,3.22,7.75,7.39,13,11.53,10.44,8.27,24.36,16.32,41.79,16.32s37.71-10.22,50.11-17.17c7-3.94,16-11,23.26-16.36,5.58-4.09,5.38-9,10-8.49s1.2,5.46-5.25,11.09S391.09,257.44,382.89,261.71Z"/><path id="path13" class="cls-4" d="M622.39,595.47c-2.17-.08-4.31-.07-6.39,0h-.58c5.37-17-6.51-29.47-38.17-43.79-32.83-14.44-59-13-63.41,16.29-.28,1.53-.51,3.1-.68,4.68a49.79,49.79,0,0,0-7.4,3.29c-15.41,8.44-23.83,23.74-28.51,42.52s-6,41.43-7.3,66.92v0c-.79,12.81-6.07,30.15-11.41,48.51-53.78,38.37-128.42,55-191.8,11.73-4.29-6.79-9.22-13.52-14.29-20.16-3.24-4.23-6.57-8.45-9.87-12.6a40.06,40.06,0,0,0,16.5-3.08A20.89,20.89,0,0,0,270.48,698c3.86-10.39,0-25-12.39-41.8s-33.32-35.63-64.1-54.5h0c-22.62-14.08-35.26-31.32-41.18-50s-5.1-39-.53-59c8.76-38.37,31.26-75.7,45.62-99.11,3.86-2.84,1.38,5.28-14.54,34.83-14.26,27-40.93,89.38-4.42,138.07,1-34.65,9.25-70,23.14-103,20.23-45.85,62.54-125.38,65.9-188.76,1.74,1.26,7.69,5.28,10.34,6.79h0c7.76,4.57,13.59,11.25,21.14,17.32A52.23,52.23,0,0,0,330.78,311q2.06.12,4,.12c14.72,0,26.2-4.8,35.76-10.27,10.39-5.94,18.69-12.52,26.56-15.08h0c16.63-5.2,29.84-14.4,37.36-25.12,12.92,50.92,43,124.47,62.27,160.36,10.27,19,30.69,59.5,39.51,108.25a66.4,66.4,0,0,1,18.34,2.32c23.07-59.81-19.56-124.22-39.06-142.16-7.87-7.64-8.25-11.06-4.34-10.9,21.14,18.71,48.91,56.32,59,98.78,4.61,19.36,5.59,39.72.65,59.81,2.41,1,4.87,2.09,7.36,3.27C615.28,558.39,629,574.07,622.39,595.47Z"/><path id="path15" class="cls-4" d="M434.51,174A64.58,64.58,0,0,1,429,201.48a53.14,53.14,0,0,1-7.7,12.84q-1.53-.73-3.18-1.41c-3.81-1.63-7.18-3-10.2-4.11s-5.37-1.92-7.81-2.76c1.76-2.13,5.23-4.64,6.52-7.79a41,41,0,0,0,3.1-14.92c0-.22.07-.41.07-.67a41.33,41.33,0,0,0-2.14-14.47A26.71,26.71,0,0,0,401,156.91a13.69,13.69,0,0,0-9.55-4.35H391a14,14,0,0,0-9.3,3.69A26.64,26.64,0,0,0,374.19,167a41.42,41.42,0,0,0-3.1,15,4.43,4.43,0,0,0,0,.63,43.92,43.92,0,0,0,.6,8.58c-6.88-3.43-15.68-5.93-21.76-7.38a73.62,73.62,0,0,1-.61-8.18v-.77a63.55,63.55,0,0,1,5.41-27.45c3.87-8.77,8.66-15.07,15.4-20.2s13.38-7.47,21.23-7.55h.37c7.68,0,14.25,2.26,21,7.15s11.79,11.2,15.77,19.9a64,64,0,0,1,6,26.6A2.66,2.66,0,0,0,434.51,174Z"/><path id="path17" class="cls-4" d="M318.43,184.08c-1,.29-2,.6-3,.93a60.25,60.25,0,0,0-14.09,6.79,38.35,38.35,0,0,0,.15-9.19,2.91,2.91,0,0,1,0-.51,39.92,39.92,0,0,0-2.92-11.79,22.7,22.7,0,0,0-5.93-8.7,9.68,9.68,0,0,0-6.58-2.76l-.71,0c-2.58.22-4.72,1.48-6.75,4a22.85,22.85,0,0,0-4.31,9.58,38.45,38.45,0,0,0-.81,12.6c0,.18,0,.33,0,.51a39,39,0,0,0,2.91,11.83,22.52,22.52,0,0,0,5.93,8.66c.41.35.81.67,1.21,1-2.52,1.95-4.21,3.33-6.29,4.85l-4.75,3.49c-4-3.76-7.14-8.48-9.88-14.71a65.87,65.87,0,0,1-5.49-23.43v-.07a65.8,65.8,0,0,1,2.76-23.92c2.4-7.74,5.6-13.34,10.25-17.94s9.32-6.93,15-7.22l1.3,0c5.11,0,9.67,1.71,14.39,5.48,5.12,4.09,9,9.32,12.23,16.69a64.91,64.91,0,0,1,5.46,23.44v.07a69.3,69.3,0,0,1-.09,10.42Z"/><path id="path28396-7" d="M344.09,204.89c.64,2.08,4,1.73,5.92,2.73,1.7.87,3.07,2.79,5,2.84s4.65-.63,4.89-2.43c.32-2.39-3.17-3.91-5.41-4.78-2.88-1.12-6.58-1.69-9.29-.19-.62.34-1.29,1.15-1.08,1.83Z"/><path id="path5461" d="M324.32,204.89c-.64,2.08-4,1.73-5.92,2.73-1.7.87-3.07,2.79-5,2.84s-4.66-.63-4.89-2.43c-.32-2.39,3.17-3.91,5.41-4.78,2.88-1.12,6.58-1.69,9.28-.19C323.86,203.4,324.53,204.21,324.32,204.89Z"/><path d="M283.58,207l17.8-15.16s1.87-34.37-17.8-32.58C266.17,169.83,274,201.75,283.58,207Z"/><path d="M371.66,191.17S388.1,203.92,400.13,206s15.91-47.56-6.36-53.21C367.83,151.5,371.66,191.17,371.66,191.17Z"/><path id="path7-3" data-name="path7" class="cls-3" d="M269.49,789v.13c-2,26.74-17.12,41.3-40.28,46.59s-54.53,0-85.87-16.37h0c-34.68-18.37-75.93-16.54-102.4-22.07C27.67,794.46,19,790.3,15.07,782.58s-4.05-21.2,4.37-44.17l0-.1,0-.1c4.17-12.85,1.08-26.91-.94-40.11s-3-25.2,1.5-33.56l0-.08c5.77-11.12,14.23-15.1,24.73-18.86s23-6.73,32.79-16.59l.06,0,0-.05c9.09-9.59,15.92-21.62,23.91-30.15,6.74-7.2,13.49-12,23.66-12h.35a38.44,38.44,0,0,1,5.67.47c13.5,2,25.27,11.48,36.61,26.86l32.74,59.67v0l0,0c8.71,18.19,27.11,38.2,42.7,58.61S271.06,773.27,269.49,789Z"/></g><g id="Layer_2" data-name="Layer 2"><polygon class="cls-5" points="382.83 224.58 493.57 211.11 493.48 221.3 420.18 238.35 382.83 224.58"/><polygon class="cls-5" points="415.93 264.9 395.4 293.82 497.07 256.47 493.34 246.2 415.93 264.9"/><polygon class="cls-5" points="274.63 237.37 247.09 215.11 247.52 227.97 264.95 247.47 274.63 237.37"/><polygon class="cls-5" points="245.09 260.35 242.96 270.57 287.94 307.82 273.63 275.97 245.09 260.35"/><path class="cls-6" d="M335.41,340.5c33,.46,109.46-73.29,90.77-101.15s-27.74-5.2-65.29-33.2-59.46-1-59.46-1-18,13.88-47.39,27.2C229.5,243.47,291.58,339.9,335.41,340.5Z"/><path class="cls-7" d="M415.18,238.35c2.67,0-20.6.72-70.87-21.31-18.31-8-37.63,1.85-41.51,4.18-5,3-46.49,22.25-46.49,22.25"/><path class="cls-7" d="M401.59,285.27s-6.4-3.71-49,2.84c-17.23,2.65-27.92,2.14-38.07,1-10.75-1.23-38.33-3-38.33-3"/><path class="cls-7" d="M379.9,303.82c2.56-1.46,2.66-2.43-24.83,10.49-16.58,7.79-36.52,5.67-41.54,2.67s-18.59-8.16-18.59-8.16"/><path class="cls-7" d="M414.12,264.66s-22-10.32-69.56-15.47c0,0-15.78-4.12-40.76,3L263,266.07"/></g><g id="Layer_3" data-name="Layer 3"><text class="cls-8" transform="translate(189.65 534.95)"><tspan class="cls-9">@</tspan><tspan x="50.13" y="0">jmuni</tspan><tspan class="cls-10" x="185.26" y="0">x</tspan><tspan x="210.6" y="0">use</tspan><tspan class="cls-11" x="292.27" y="0">r</tspan><tspan x="311.04" y="0">s </tspan></text><text class="cls-12" transform="translate(207.5 565.7)"><tspan class="cls-13">ww</tspan><tspan class="cls-14" x="45.6" y="0">w</tspan><tspan class="cls-15" x="67.83" y="0">.</tspan><tspan x="74.17" y="0">jmuni</tspan><tspan class="cls-16" x="149.25" y="0">x</tspan><tspan x="163.32" y="0">use</tspan><tspan class="cls-17" x="208.7" y="0">r</tspan><tspan x="219.12" y="0">s</tspan><tspan class="cls-13" x="232" y="0">.</tspan><tspan x="237.85" y="0">o</tspan><tspan class="cls-16" x="253.97" y="0">r</tspan><tspan x="264.22" y="0">g</tspan></text></g></svg>